<svg width="256" height="256" viewBox="0 0 256 256" fill="none" xmlns="http://www.w3.org/2000/svg">
<rect x="69" y="95" width="118" height="118" fill="white"/>
<path fill-rule="evenodd" clip-rule="evenodd" d="M48 48.625C48 41.5636 50.8095 34.7914 55.8105 29.7983C60.8115 24.8051 67.5942 22 74.6667 22H135.813C142.885 22.0015 149.667 24.8076 154.667 29.8011L200.187 75.25C205.188 80.242 207.998 87.0131 208 94.0739V208.375C208 215.436 205.19 222.209 200.19 227.202C195.189 232.195 188.406 235 181.333 235H74.6667C67.5942 235 60.8115 232.195 55.8105 227.202C50.8095 222.209 48 215.436 48 208.375V48.625ZM74.6667 128.5C74.6667 124.969 76.0714 121.583 78.5719 119.087C81.0724 116.59 84.4638 115.188 88 115.188H168C171.536 115.188 174.928 116.59 177.428 119.087C179.929 121.583 181.333 124.969 181.333 128.5C181.333 132.031 179.929 135.417 177.428 137.913C174.928 140.41 171.536 141.812 168 141.812H88C84.4638 141.812 81.0724 140.41 78.5719 137.913C76.0714 135.417 74.6667 132.031 74.6667 128.5ZM88 168.438C84.4638 168.438 81.0724 169.84 78.5719 172.337C76.0714 174.833 74.6667 178.219 74.6667 181.75C74.6667 185.281 76.0714 188.667 78.5719 191.163C81.0724 193.66 84.4638 195.062 88 195.062H168C171.536 195.062 174.928 193.66 177.428 191.163C179.929 188.667 181.333 185.281 181.333 181.75C181.333 178.219 179.929 174.833 177.428 172.337C174.928 169.84 171.536 168.438 168 168.438H88Z" fill="#4ECB71"/>
</svg>
