<?xml version="1.0" standalone="no"?>
<!DOCTYPE svg PUBLIC "-//W3C//DTD SVG 20010904//EN"
 "http://www.w3.org/TR/2001/REC-SVG-20010904/DTD/svg10.dtd">
<svg version="1.0" xmlns="http://www.w3.org/2000/svg"
 width="256.000000pt" height="256.000000pt" viewBox="0 0 256.000000 256.000000"
 preserveAspectRatio="xMidYMid meet">
<metadata>
Created by potrace 1.14, written by Peter Selinger 2001-2017
</metadata>
<g transform="translate(0.000000,256.000000) scale(0.100000,-0.100000)"
fill="#000000" stroke="none">
<path d="M650 2322 c-25 -9 -66 -37 -91 -62 -83 -82 -79 -31 -79 -979 0 -925
-2 -900 63 -977 19 -21 56 -50 83 -64 l49 -25 605 0 605 0 49 25 c27 14 64 42
82 64 65 76 64 64 64 751 l-1 620 -23 51 c-18 38 -82 109 -275 302 -138 138
-273 264 -299 279 l-47 28 -370 2 c-327 2 -375 0 -415 -15z"/>
</g>
</svg>
